<mxfile host="app.diagrams.net" modified="2021-02-14T02:13:42.663Z" agent="5.0 (Windows)" etag="GX0_-NrMAoXPL1Tvhfuc" version="14.3.1" type="github">
  <diagram id="C5RBs43oDa-KdzZeNtuy" name="Page-1">
    <mxGraphModel dx="1195" dy="803" grid="1" gridSize="10" guides="1" tooltips="1" connect="1" arrows="1" fold="1" page="1" pageScale="1" pageWidth="827" pageHeight="1169" math="0" shadow="0">
      <root>
        <mxCell id="WIyWlLk6GJQsqaUBKTNV-0" />
        <mxCell id="WIyWlLk6GJQsqaUBKTNV-1" parent="WIyWlLk6GJQsqaUBKTNV-0" />
        <mxCell id="WIyWlLk6GJQsqaUBKTNV-2" value="" style="rounded=0;html=1;jettySize=auto;orthogonalLoop=1;fontSize=11;endArrow=block;endFill=0;endSize=8;strokeWidth=1;shadow=0;labelBackgroundColor=none;edgeStyle=orthogonalEdgeStyle;" parent="WIyWlLk6GJQsqaUBKTNV-1" source="WIyWlLk6GJQsqaUBKTNV-3" target="WIyWlLk6GJQsqaUBKTNV-6" edge="1">
          <mxGeometry relative="1" as="geometry" />
        </mxCell>
        <mxCell id="WIyWlLk6GJQsqaUBKTNV-3" value="Start" style="rounded=1;whiteSpace=wrap;html=1;fontSize=12;glass=0;strokeWidth=1;shadow=0;fillColor=#99FFFF;" parent="WIyWlLk6GJQsqaUBKTNV-1" vertex="1">
          <mxGeometry x="10" y="10" width="120" height="40" as="geometry" />
        </mxCell>
        <mxCell id="WIyWlLk6GJQsqaUBKTNV-4" value="Yes" style="rounded=0;html=1;jettySize=auto;orthogonalLoop=1;fontSize=11;endArrow=block;endFill=0;endSize=8;strokeWidth=1;shadow=0;labelBackgroundColor=none;edgeStyle=orthogonalEdgeStyle;" parent="WIyWlLk6GJQsqaUBKTNV-1" source="WIyWlLk6GJQsqaUBKTNV-6" target="WIyWlLk6GJQsqaUBKTNV-10" edge="1">
          <mxGeometry y="20" relative="1" as="geometry">
            <mxPoint as="offset" />
          </mxGeometry>
        </mxCell>
        <mxCell id="WIyWlLk6GJQsqaUBKTNV-5" value="No" style="edgeStyle=orthogonalEdgeStyle;rounded=0;html=1;jettySize=auto;orthogonalLoop=1;fontSize=11;endArrow=block;endFill=0;endSize=8;strokeWidth=1;shadow=0;labelBackgroundColor=none;" parent="WIyWlLk6GJQsqaUBKTNV-1" source="WIyWlLk6GJQsqaUBKTNV-6" target="WIyWlLk6GJQsqaUBKTNV-7" edge="1">
          <mxGeometry y="10" relative="1" as="geometry">
            <mxPoint as="offset" />
          </mxGeometry>
        </mxCell>
        <mxCell id="WIyWlLk6GJQsqaUBKTNV-6" value="Enter Club?" style="rhombus;whiteSpace=wrap;html=1;shadow=0;fontFamily=Helvetica;fontSize=12;align=center;strokeWidth=1;spacing=6;spacingTop=-4;fillColor=#FF9999;" parent="WIyWlLk6GJQsqaUBKTNV-1" vertex="1">
          <mxGeometry x="170" y="10" width="100" height="80" as="geometry" />
        </mxCell>
        <mxCell id="WIyWlLk6GJQsqaUBKTNV-7" value="&quot;What If?&quot; End" style="rounded=1;whiteSpace=wrap;html=1;fontSize=12;glass=0;strokeWidth=1;shadow=0;fillColor=#CC0000;" parent="WIyWlLk6GJQsqaUBKTNV-1" vertex="1">
          <mxGeometry x="294" y="10" width="120" height="40" as="geometry" />
        </mxCell>
        <mxCell id="WIyWlLk6GJQsqaUBKTNV-8" value="&lt;div&gt;Hulu&lt;/div&gt;" style="rounded=0;html=1;jettySize=auto;orthogonalLoop=1;fontSize=11;endArrow=block;endFill=0;endSize=8;strokeWidth=1;shadow=0;labelBackgroundColor=none;edgeStyle=orthogonalEdgeStyle;" parent="WIyWlLk6GJQsqaUBKTNV-1" source="WIyWlLk6GJQsqaUBKTNV-10" target="WIyWlLk6GJQsqaUBKTNV-11" edge="1">
          <mxGeometry x="0.0006" relative="1" as="geometry">
            <mxPoint as="offset" />
          </mxGeometry>
        </mxCell>
        <mxCell id="WIyWlLk6GJQsqaUBKTNV-9" value="Netflix" style="edgeStyle=orthogonalEdgeStyle;rounded=0;html=1;jettySize=auto;orthogonalLoop=1;fontSize=11;endArrow=block;endFill=0;endSize=8;strokeWidth=1;shadow=0;labelBackgroundColor=none;" parent="WIyWlLk6GJQsqaUBKTNV-1" source="WIyWlLk6GJQsqaUBKTNV-10" target="WIyWlLk6GJQsqaUBKTNV-12" edge="1">
          <mxGeometry y="10" relative="1" as="geometry">
            <mxPoint as="offset" />
          </mxGeometry>
        </mxCell>
        <mxCell id="WIyWlLk6GJQsqaUBKTNV-10" value="Streaming Service?" style="rhombus;whiteSpace=wrap;html=1;shadow=0;fontFamily=Helvetica;fontSize=12;align=center;strokeWidth=1;spacing=6;spacingTop=-4;fillColor=#FF9999;" parent="WIyWlLk6GJQsqaUBKTNV-1" vertex="1">
          <mxGeometry x="170" y="110" width="100" height="80" as="geometry" />
        </mxCell>
        <mxCell id="7niTW8Xgemr1H40Gm-u1-4" style="edgeStyle=orthogonalEdgeStyle;rounded=0;orthogonalLoop=1;jettySize=auto;html=1;exitX=0.5;exitY=1;exitDx=0;exitDy=0;entryX=0;entryY=0.5;entryDx=0;entryDy=0;" parent="WIyWlLk6GJQsqaUBKTNV-1" source="WIyWlLk6GJQsqaUBKTNV-11" target="7niTW8Xgemr1H40Gm-u1-2" edge="1">
          <mxGeometry relative="1" as="geometry">
            <mxPoint x="460" y="120" as="targetPoint" />
          </mxGeometry>
        </mxCell>
        <mxCell id="WIyWlLk6GJQsqaUBKTNV-11" value="+1 Thomas&lt;br&gt;+1 Alex" style="rounded=1;whiteSpace=wrap;html=1;fontSize=12;glass=0;strokeWidth=1;shadow=0;fillColor=#007FFF;" parent="WIyWlLk6GJQsqaUBKTNV-1" vertex="1">
          <mxGeometry x="320" y="70" width="120" height="40" as="geometry" />
        </mxCell>
        <mxCell id="7niTW8Xgemr1H40Gm-u1-5" style="edgeStyle=orthogonalEdgeStyle;rounded=0;orthogonalLoop=1;jettySize=auto;html=1;exitX=0.5;exitY=0;exitDx=0;exitDy=0;entryX=0;entryY=0.5;entryDx=0;entryDy=0;" parent="WIyWlLk6GJQsqaUBKTNV-1" source="WIyWlLk6GJQsqaUBKTNV-12" target="7niTW8Xgemr1H40Gm-u1-2" edge="1">
          <mxGeometry relative="1" as="geometry" />
        </mxCell>
        <mxCell id="WIyWlLk6GJQsqaUBKTNV-12" value="+1 Taylor &lt;br&gt;+1 Jolee" style="rounded=1;whiteSpace=wrap;html=1;fontSize=12;glass=0;strokeWidth=1;shadow=0;fillColor=#007FFF;" parent="WIyWlLk6GJQsqaUBKTNV-1" vertex="1">
          <mxGeometry x="320" y="190" width="120" height="40" as="geometry" />
        </mxCell>
        <mxCell id="7niTW8Xgemr1H40Gm-u1-10" style="edgeStyle=orthogonalEdgeStyle;rounded=0;orthogonalLoop=1;jettySize=auto;html=1;exitX=0.5;exitY=0;exitDx=0;exitDy=0;entryX=0.5;entryY=1;entryDx=0;entryDy=0;" parent="WIyWlLk6GJQsqaUBKTNV-1" source="7niTW8Xgemr1H40Gm-u1-2" target="7niTW8Xgemr1H40Gm-u1-9" edge="1">
          <mxGeometry relative="1" as="geometry" />
        </mxCell>
        <mxCell id="7niTW8Xgemr1H40Gm-u1-2" value="Welcome Spiel + Introductions" style="rounded=1;whiteSpace=wrap;html=1;fillColor=#99FFFF;" parent="WIyWlLk6GJQsqaUBKTNV-1" vertex="1">
          <mxGeometry x="450" y="120" width="100" height="60" as="geometry" />
        </mxCell>
        <mxCell id="7niTW8Xgemr1H40Gm-u1-14" style="edgeStyle=orthogonalEdgeStyle;rounded=0;orthogonalLoop=1;jettySize=auto;html=1;exitX=1;exitY=0;exitDx=0;exitDy=0;entryX=0.004;entryY=0.164;entryDx=0;entryDy=0;entryPerimeter=0;" parent="WIyWlLk6GJQsqaUBKTNV-1" source="7niTW8Xgemr1H40Gm-u1-9" target="7niTW8Xgemr1H40Gm-u1-11" edge="1">
          <mxGeometry relative="1" as="geometry">
            <mxPoint x="560" y="29.86206896551721" as="targetPoint" />
          </mxGeometry>
        </mxCell>
        <mxCell id="7niTW8Xgemr1H40Gm-u1-16" style="edgeStyle=orthogonalEdgeStyle;rounded=0;orthogonalLoop=1;jettySize=auto;html=1;exitX=1;exitY=1;exitDx=0;exitDy=0;entryX=0;entryY=0.5;entryDx=0;entryDy=0;" parent="WIyWlLk6GJQsqaUBKTNV-1" source="7niTW8Xgemr1H40Gm-u1-9" target="7niTW8Xgemr1H40Gm-u1-12" edge="1">
          <mxGeometry relative="1" as="geometry" />
        </mxCell>
        <mxCell id="7niTW8Xgemr1H40Gm-u1-9" value="Who to hang with?" style="rhombus;whiteSpace=wrap;html=1;fillColor=#FF9999;" parent="WIyWlLk6GJQsqaUBKTNV-1" vertex="1">
          <mxGeometry x="450" y="10" width="100" height="80" as="geometry" />
        </mxCell>
        <mxCell id="7niTW8Xgemr1H40Gm-u1-18" style="edgeStyle=orthogonalEdgeStyle;rounded=0;orthogonalLoop=1;jettySize=auto;html=1;exitX=1;exitY=0.5;exitDx=0;exitDy=0;entryX=0;entryY=0;entryDx=0;entryDy=0;" parent="WIyWlLk6GJQsqaUBKTNV-1" source="7niTW8Xgemr1H40Gm-u1-11" target="7niTW8Xgemr1H40Gm-u1-17" edge="1">
          <mxGeometry relative="1" as="geometry" />
        </mxCell>
        <mxCell id="7niTW8Xgemr1H40Gm-u1-11" value="Taylor and Alex arguing over what to watch" style="rounded=1;whiteSpace=wrap;html=1;fillColor=#99FFFF;" parent="WIyWlLk6GJQsqaUBKTNV-1" vertex="1">
          <mxGeometry x="590" y="20" width="120" height="50" as="geometry" />
        </mxCell>
        <mxCell id="7niTW8Xgemr1H40Gm-u1-26" style="edgeStyle=orthogonalEdgeStyle;rounded=0;orthogonalLoop=1;jettySize=auto;html=1;exitX=0.5;exitY=1;exitDx=0;exitDy=0;" parent="WIyWlLk6GJQsqaUBKTNV-1" source="7niTW8Xgemr1H40Gm-u1-12" target="7niTW8Xgemr1H40Gm-u1-25" edge="1">
          <mxGeometry relative="1" as="geometry" />
        </mxCell>
        <mxCell id="7niTW8Xgemr1H40Gm-u1-12" value="Jolee and Thomas discussing V Day Event" style="rounded=1;whiteSpace=wrap;html=1;fillColor=#99FFFF;" parent="WIyWlLk6GJQsqaUBKTNV-1" vertex="1">
          <mxGeometry x="590" y="80" width="120" height="50" as="geometry" />
        </mxCell>
        <mxCell id="7niTW8Xgemr1H40Gm-u1-21" style="edgeStyle=orthogonalEdgeStyle;rounded=0;orthogonalLoop=1;jettySize=auto;html=1;exitX=1;exitY=1;exitDx=0;exitDy=0;entryX=0.5;entryY=0;entryDx=0;entryDy=0;" parent="WIyWlLk6GJQsqaUBKTNV-1" source="7niTW8Xgemr1H40Gm-u1-17" target="7niTW8Xgemr1H40Gm-u1-19" edge="1">
          <mxGeometry relative="1" as="geometry" />
        </mxCell>
        <mxCell id="7niTW8Xgemr1H40Gm-u1-24" value="Splice" style="edgeLabel;html=1;align=center;verticalAlign=middle;resizable=0;points=[];" parent="7niTW8Xgemr1H40Gm-u1-21" vertex="1" connectable="0">
          <mxGeometry x="-0.0012" y="-2" relative="1" as="geometry">
            <mxPoint as="offset" />
          </mxGeometry>
        </mxCell>
        <mxCell id="7niTW8Xgemr1H40Gm-u1-22" style="edgeStyle=orthogonalEdgeStyle;rounded=0;orthogonalLoop=1;jettySize=auto;html=1;exitX=0;exitY=1;exitDx=0;exitDy=0;entryX=0.5;entryY=0;entryDx=0;entryDy=0;" parent="WIyWlLk6GJQsqaUBKTNV-1" source="7niTW8Xgemr1H40Gm-u1-17" target="7niTW8Xgemr1H40Gm-u1-20" edge="1">
          <mxGeometry relative="1" as="geometry" />
        </mxCell>
        <mxCell id="7niTW8Xgemr1H40Gm-u1-23" value="Shin Godzilla" style="edgeLabel;html=1;align=center;verticalAlign=middle;resizable=0;points=[];" parent="7niTW8Xgemr1H40Gm-u1-22" vertex="1" connectable="0">
          <mxGeometry x="-0.2845" y="1" relative="1" as="geometry">
            <mxPoint as="offset" />
          </mxGeometry>
        </mxCell>
        <mxCell id="7niTW8Xgemr1H40Gm-u1-17" value="Choose Movie" style="rhombus;whiteSpace=wrap;html=1;fillColor=#FF9999;" parent="WIyWlLk6GJQsqaUBKTNV-1" vertex="1">
          <mxGeometry x="740" y="30" width="70" height="70" as="geometry" />
        </mxCell>
        <mxCell id="7niTW8Xgemr1H40Gm-u1-41" style="edgeStyle=orthogonalEdgeStyle;rounded=0;orthogonalLoop=1;jettySize=auto;html=1;exitX=0.5;exitY=1;exitDx=0;exitDy=0;entryX=0.834;entryY=0.015;entryDx=0;entryDy=0;entryPerimeter=0;" parent="WIyWlLk6GJQsqaUBKTNV-1" source="7niTW8Xgemr1H40Gm-u1-19" target="7niTW8Xgemr1H40Gm-u1-39" edge="1">
          <mxGeometry relative="1" as="geometry" />
        </mxCell>
        <mxCell id="7niTW8Xgemr1H40Gm-u1-19" value="+1 Taylor" style="rounded=1;whiteSpace=wrap;html=1;fillColor=#007FFF;" parent="WIyWlLk6GJQsqaUBKTNV-1" vertex="1">
          <mxGeometry x="770" y="210" width="57" height="30" as="geometry" />
        </mxCell>
        <mxCell id="7niTW8Xgemr1H40Gm-u1-40" style="edgeStyle=orthogonalEdgeStyle;rounded=0;orthogonalLoop=1;jettySize=auto;html=1;exitX=0.5;exitY=1;exitDx=0;exitDy=0;entryX=0.38;entryY=0.026;entryDx=0;entryDy=0;entryPerimeter=0;" parent="WIyWlLk6GJQsqaUBKTNV-1" source="7niTW8Xgemr1H40Gm-u1-20" target="7niTW8Xgemr1H40Gm-u1-39" edge="1">
          <mxGeometry relative="1" as="geometry" />
        </mxCell>
        <mxCell id="7niTW8Xgemr1H40Gm-u1-20" value="+1 Alex" style="rounded=1;whiteSpace=wrap;html=1;fillColor=#007FFF;" parent="WIyWlLk6GJQsqaUBKTNV-1" vertex="1">
          <mxGeometry x="720" y="160" width="50" height="30" as="geometry" />
        </mxCell>
        <mxCell id="7niTW8Xgemr1H40Gm-u1-35" value="Untitled Goose&lt;br&gt;Game Night" style="edgeStyle=orthogonalEdgeStyle;rounded=0;orthogonalLoop=1;jettySize=auto;html=1;exitX=0;exitY=1;exitDx=0;exitDy=0;entryX=0.5;entryY=0;entryDx=0;entryDy=0;" parent="WIyWlLk6GJQsqaUBKTNV-1" source="7niTW8Xgemr1H40Gm-u1-25" target="7niTW8Xgemr1H40Gm-u1-27" edge="1">
          <mxGeometry relative="1" as="geometry" />
        </mxCell>
        <mxCell id="7niTW8Xgemr1H40Gm-u1-36" style="edgeStyle=orthogonalEdgeStyle;rounded=0;orthogonalLoop=1;jettySize=auto;html=1;exitX=1;exitY=1;exitDx=0;exitDy=0;entryX=0.5;entryY=0;entryDx=0;entryDy=0;" parent="WIyWlLk6GJQsqaUBKTNV-1" source="7niTW8Xgemr1H40Gm-u1-25" target="7niTW8Xgemr1H40Gm-u1-28" edge="1">
          <mxGeometry relative="1" as="geometry" />
        </mxCell>
        <mxCell id="7niTW8Xgemr1H40Gm-u1-38" value="Crochet Night" style="edgeLabel;html=1;align=center;verticalAlign=middle;resizable=0;points=[];" parent="7niTW8Xgemr1H40Gm-u1-36" vertex="1" connectable="0">
          <mxGeometry x="0.0552" y="-2" relative="1" as="geometry">
            <mxPoint as="offset" />
          </mxGeometry>
        </mxCell>
        <mxCell id="7niTW8Xgemr1H40Gm-u1-25" value="What Event to hold?" style="rhombus;whiteSpace=wrap;html=1;fillColor=#FF9999;" parent="WIyWlLk6GJQsqaUBKTNV-1" vertex="1">
          <mxGeometry x="610" y="150" width="80" height="80" as="geometry" />
        </mxCell>
        <mxCell id="7niTW8Xgemr1H40Gm-u1-43" style="edgeStyle=orthogonalEdgeStyle;rounded=0;orthogonalLoop=1;jettySize=auto;html=1;exitX=0.5;exitY=1;exitDx=0;exitDy=0;entryX=0.298;entryY=-0.02;entryDx=0;entryDy=0;entryPerimeter=0;" parent="WIyWlLk6GJQsqaUBKTNV-1" source="7niTW8Xgemr1H40Gm-u1-27" target="7niTW8Xgemr1H40Gm-u1-42" edge="1">
          <mxGeometry relative="1" as="geometry" />
        </mxCell>
        <mxCell id="7niTW8Xgemr1H40Gm-u1-27" value="+1 Thomas" style="rounded=1;whiteSpace=wrap;html=1;fillColor=#007FFF;" parent="WIyWlLk6GJQsqaUBKTNV-1" vertex="1">
          <mxGeometry x="520" y="270" width="70" height="30" as="geometry" />
        </mxCell>
        <mxCell id="7niTW8Xgemr1H40Gm-u1-44" style="edgeStyle=orthogonalEdgeStyle;rounded=0;orthogonalLoop=1;jettySize=auto;html=1;exitX=0.5;exitY=1;exitDx=0;exitDy=0;entryX=0.823;entryY=-0.02;entryDx=0;entryDy=0;entryPerimeter=0;" parent="WIyWlLk6GJQsqaUBKTNV-1" source="7niTW8Xgemr1H40Gm-u1-28" target="7niTW8Xgemr1H40Gm-u1-42" edge="1">
          <mxGeometry relative="1" as="geometry" />
        </mxCell>
        <mxCell id="7niTW8Xgemr1H40Gm-u1-28" value="+1 Jolee" style="rounded=1;whiteSpace=wrap;html=1;fillColor=#007FFF;" parent="WIyWlLk6GJQsqaUBKTNV-1" vertex="1">
          <mxGeometry x="600" y="270" width="50" height="30" as="geometry" />
        </mxCell>
        <mxCell id="7niTW8Xgemr1H40Gm-u1-47" style="edgeStyle=orthogonalEdgeStyle;rounded=0;orthogonalLoop=1;jettySize=auto;html=1;" parent="WIyWlLk6GJQsqaUBKTNV-1" source="7niTW8Xgemr1H40Gm-u1-39" target="7niTW8Xgemr1H40Gm-u1-45" edge="1">
          <mxGeometry relative="1" as="geometry" />
        </mxCell>
        <mxCell id="7niTW8Xgemr1H40Gm-u1-39" value="Taylor is kidding and you watch Godzilla regardless." style="rounded=1;whiteSpace=wrap;html=1;fillColor=#99FFFF;" parent="WIyWlLk6GJQsqaUBKTNV-1" vertex="1">
          <mxGeometry x="700" y="260" width="120" height="60" as="geometry" />
        </mxCell>
        <mxCell id="7niTW8Xgemr1H40Gm-u1-46" style="edgeStyle=orthogonalEdgeStyle;rounded=0;orthogonalLoop=1;jettySize=auto;html=1;exitX=0.5;exitY=1;exitDx=0;exitDy=0;" parent="WIyWlLk6GJQsqaUBKTNV-1" source="7niTW8Xgemr1H40Gm-u1-42" target="7niTW8Xgemr1H40Gm-u1-45" edge="1">
          <mxGeometry relative="1" as="geometry" />
        </mxCell>
        <mxCell id="7niTW8Xgemr1H40Gm-u1-42" value="They decide to hold the event you chose first, then the other one next week." style="rounded=1;whiteSpace=wrap;html=1;fillColor=#99FFFF;" parent="WIyWlLk6GJQsqaUBKTNV-1" vertex="1">
          <mxGeometry x="520" y="320" width="130" height="60" as="geometry" />
        </mxCell>
        <mxCell id="zB-yl0xvXpaKHg-PZh-j-4" style="edgeStyle=orthogonalEdgeStyle;rounded=0;orthogonalLoop=1;jettySize=auto;html=1;exitX=0.5;exitY=1;exitDx=0;exitDy=0;entryX=0.5;entryY=0;entryDx=0;entryDy=0;" edge="1" parent="WIyWlLk6GJQsqaUBKTNV-1" source="7niTW8Xgemr1H40Gm-u1-45" target="zB-yl0xvXpaKHg-PZh-j-2">
          <mxGeometry relative="1" as="geometry" />
        </mxCell>
        <mxCell id="7niTW8Xgemr1H40Gm-u1-45" value="You have to leave for class and promise to come back tomorrow." style="rounded=1;whiteSpace=wrap;html=1;fillColor=#99FFFF;" parent="WIyWlLk6GJQsqaUBKTNV-1" vertex="1">
          <mxGeometry x="685" y="360" width="120" height="60" as="geometry" />
        </mxCell>
        <mxCell id="zB-yl0xvXpaKHg-PZh-j-25" style="edgeStyle=orthogonalEdgeStyle;rounded=0;orthogonalLoop=1;jettySize=auto;html=1;exitX=0;exitY=0.5;exitDx=0;exitDy=0;entryX=1;entryY=0.5;entryDx=0;entryDy=0;" edge="1" parent="WIyWlLk6GJQsqaUBKTNV-1" source="zB-yl0xvXpaKHg-PZh-j-2" target="zB-yl0xvXpaKHg-PZh-j-7">
          <mxGeometry relative="1" as="geometry" />
        </mxCell>
        <mxCell id="zB-yl0xvXpaKHg-PZh-j-2" value="Everyone&#39;s talking about Valentine&#39;s Day coming up this Sunday." style="rounded=1;whiteSpace=wrap;html=1;fillColor=#99FFFF;" vertex="1" parent="WIyWlLk6GJQsqaUBKTNV-1">
          <mxGeometry x="685" y="440" width="120" height="60" as="geometry" />
        </mxCell>
        <mxCell id="zB-yl0xvXpaKHg-PZh-j-28" style="edgeStyle=orthogonalEdgeStyle;rounded=0;orthogonalLoop=1;jettySize=auto;html=1;exitX=0;exitY=0.5;exitDx=0;exitDy=0;entryX=1;entryY=0.5;entryDx=0;entryDy=0;" edge="1" parent="WIyWlLk6GJQsqaUBKTNV-1" source="zB-yl0xvXpaKHg-PZh-j-6" target="zB-yl0xvXpaKHg-PZh-j-26">
          <mxGeometry relative="1" as="geometry" />
        </mxCell>
        <mxCell id="zB-yl0xvXpaKHg-PZh-j-6" value="Hate It." style="rounded=1;whiteSpace=wrap;html=1;fillColor=#99FFFF;" vertex="1" parent="WIyWlLk6GJQsqaUBKTNV-1">
          <mxGeometry x="510" y="390" width="50" height="30" as="geometry" />
        </mxCell>
        <mxCell id="zB-yl0xvXpaKHg-PZh-j-10" style="edgeStyle=orthogonalEdgeStyle;rounded=0;orthogonalLoop=1;jettySize=auto;html=1;exitX=0.5;exitY=0;exitDx=0;exitDy=0;entryX=1;entryY=0.75;entryDx=0;entryDy=0;" edge="1" parent="WIyWlLk6GJQsqaUBKTNV-1" source="zB-yl0xvXpaKHg-PZh-j-7" target="zB-yl0xvXpaKHg-PZh-j-6">
          <mxGeometry relative="1" as="geometry" />
        </mxCell>
        <mxCell id="zB-yl0xvXpaKHg-PZh-j-13" style="edgeStyle=orthogonalEdgeStyle;rounded=0;orthogonalLoop=1;jettySize=auto;html=1;exitX=0;exitY=0;exitDx=0;exitDy=0;entryX=1;entryY=0.5;entryDx=0;entryDy=0;" edge="1" parent="WIyWlLk6GJQsqaUBKTNV-1" source="zB-yl0xvXpaKHg-PZh-j-7" target="zB-yl0xvXpaKHg-PZh-j-11">
          <mxGeometry relative="1" as="geometry" />
        </mxCell>
        <mxCell id="zB-yl0xvXpaKHg-PZh-j-19" style="edgeStyle=orthogonalEdgeStyle;rounded=0;orthogonalLoop=1;jettySize=auto;html=1;exitX=0;exitY=1;exitDx=0;exitDy=0;entryX=1;entryY=0.5;entryDx=0;entryDy=0;" edge="1" parent="WIyWlLk6GJQsqaUBKTNV-1" source="zB-yl0xvXpaKHg-PZh-j-7" target="zB-yl0xvXpaKHg-PZh-j-18">
          <mxGeometry relative="1" as="geometry" />
        </mxCell>
        <mxCell id="zB-yl0xvXpaKHg-PZh-j-21" style="edgeStyle=orthogonalEdgeStyle;rounded=0;orthogonalLoop=1;jettySize=auto;html=1;exitX=0.5;exitY=1;exitDx=0;exitDy=0;" edge="1" parent="WIyWlLk6GJQsqaUBKTNV-1" source="zB-yl0xvXpaKHg-PZh-j-7">
          <mxGeometry relative="1" as="geometry">
            <mxPoint x="550" y="550" as="targetPoint" />
          </mxGeometry>
        </mxCell>
        <mxCell id="zB-yl0xvXpaKHg-PZh-j-23" style="edgeStyle=orthogonalEdgeStyle;rounded=0;orthogonalLoop=1;jettySize=auto;html=1;exitX=1;exitY=1;exitDx=0;exitDy=0;entryX=0;entryY=0.75;entryDx=0;entryDy=0;" edge="1" parent="WIyWlLk6GJQsqaUBKTNV-1" source="zB-yl0xvXpaKHg-PZh-j-7" target="zB-yl0xvXpaKHg-PZh-j-17">
          <mxGeometry relative="1" as="geometry" />
        </mxCell>
        <mxCell id="zB-yl0xvXpaKHg-PZh-j-7" value="How do you feel about V-Day?" style="rhombus;whiteSpace=wrap;html=1;fillColor=#FF9999;" vertex="1" parent="WIyWlLk6GJQsqaUBKTNV-1">
          <mxGeometry x="585" y="430" width="80" height="80" as="geometry" />
        </mxCell>
        <mxCell id="zB-yl0xvXpaKHg-PZh-j-29" style="edgeStyle=orthogonalEdgeStyle;rounded=0;orthogonalLoop=1;jettySize=auto;html=1;exitX=0;exitY=0.5;exitDx=0;exitDy=0;entryX=1;entryY=0.5;entryDx=0;entryDy=0;" edge="1" parent="WIyWlLk6GJQsqaUBKTNV-1" source="zB-yl0xvXpaKHg-PZh-j-11" target="zB-yl0xvXpaKHg-PZh-j-27">
          <mxGeometry relative="1" as="geometry" />
        </mxCell>
        <mxCell id="zB-yl0xvXpaKHg-PZh-j-11" value="Sad by it." style="rounded=1;whiteSpace=wrap;html=1;fillColor=#99FFFF;" vertex="1" parent="WIyWlLk6GJQsqaUBKTNV-1">
          <mxGeometry x="505" y="430" width="60" height="30" as="geometry" />
        </mxCell>
        <mxCell id="zB-yl0xvXpaKHg-PZh-j-37" style="edgeStyle=orthogonalEdgeStyle;rounded=0;orthogonalLoop=1;jettySize=auto;html=1;exitX=0.5;exitY=1;exitDx=0;exitDy=0;entryX=0.5;entryY=0;entryDx=0;entryDy=0;" edge="1" parent="WIyWlLk6GJQsqaUBKTNV-1" source="zB-yl0xvXpaKHg-PZh-j-17" target="zB-yl0xvXpaKHg-PZh-j-36">
          <mxGeometry relative="1" as="geometry" />
        </mxCell>
        <mxCell id="zB-yl0xvXpaKHg-PZh-j-17" value="Can&#39;t wait for the chocolate on sale!" style="rounded=1;whiteSpace=wrap;html=1;fillColor=#99FFFF;" vertex="1" parent="WIyWlLk6GJQsqaUBKTNV-1">
          <mxGeometry x="655" y="520" width="115" height="45" as="geometry" />
        </mxCell>
        <mxCell id="zB-yl0xvXpaKHg-PZh-j-33" style="edgeStyle=orthogonalEdgeStyle;rounded=0;orthogonalLoop=1;jettySize=auto;html=1;exitX=0;exitY=0.5;exitDx=0;exitDy=0;entryX=1;entryY=0.25;entryDx=0;entryDy=0;" edge="1" parent="WIyWlLk6GJQsqaUBKTNV-1" source="zB-yl0xvXpaKHg-PZh-j-18" target="zB-yl0xvXpaKHg-PZh-j-30">
          <mxGeometry relative="1" as="geometry" />
        </mxCell>
        <mxCell id="zB-yl0xvXpaKHg-PZh-j-18" value="Hoping for love!" style="rounded=1;whiteSpace=wrap;html=1;fillColor=#99FFFF;" vertex="1" parent="WIyWlLk6GJQsqaUBKTNV-1">
          <mxGeometry x="495" y="480" width="55" height="40" as="geometry" />
        </mxCell>
        <mxCell id="zB-yl0xvXpaKHg-PZh-j-35" style="edgeStyle=orthogonalEdgeStyle;rounded=0;orthogonalLoop=1;jettySize=auto;html=1;exitX=1;exitY=0.75;exitDx=0;exitDy=0;entryX=1;entryY=0.25;entryDx=0;entryDy=0;" edge="1" parent="WIyWlLk6GJQsqaUBKTNV-1" source="zB-yl0xvXpaKHg-PZh-j-20" target="zB-yl0xvXpaKHg-PZh-j-34">
          <mxGeometry relative="1" as="geometry" />
        </mxCell>
        <mxCell id="zB-yl0xvXpaKHg-PZh-j-20" value="Don&#39;t Care." style="rounded=1;whiteSpace=wrap;html=1;direction=west;fillColor=#99FFFF;" vertex="1" parent="WIyWlLk6GJQsqaUBKTNV-1">
          <mxGeometry x="520" y="555" width="70" height="25" as="geometry" />
        </mxCell>
        <mxCell id="zB-yl0xvXpaKHg-PZh-j-26" value="+1 Jolee, She mentions its her parents&#39; anniversary." style="rounded=1;whiteSpace=wrap;html=1;fillColor=#007FFF;" vertex="1" parent="WIyWlLk6GJQsqaUBKTNV-1">
          <mxGeometry x="354" y="350" width="120" height="60" as="geometry" />
        </mxCell>
        <mxCell id="zB-yl0xvXpaKHg-PZh-j-27" value="+1 Alex, he mentions not being the luckiest on V day" style="rounded=1;whiteSpace=wrap;html=1;fillColor=#007FFF;" vertex="1" parent="WIyWlLk6GJQsqaUBKTNV-1">
          <mxGeometry x="354" y="415" width="120" height="60" as="geometry" />
        </mxCell>
        <mxCell id="zB-yl0xvXpaKHg-PZh-j-30" value="No one seems to agree and cracks jokes about it." style="rounded=1;whiteSpace=wrap;html=1;fillColor=#007FFF;" vertex="1" parent="WIyWlLk6GJQsqaUBKTNV-1">
          <mxGeometry x="354" y="480" width="120" height="60" as="geometry" />
        </mxCell>
        <mxCell id="zB-yl0xvXpaKHg-PZh-j-34" value="+1 Thomas, he mentions not giving a fuck about it." style="rounded=1;whiteSpace=wrap;html=1;fillColor=#007FFF;" vertex="1" parent="WIyWlLk6GJQsqaUBKTNV-1">
          <mxGeometry x="354" y="550" width="120" height="60" as="geometry" />
        </mxCell>
        <mxCell id="zB-yl0xvXpaKHg-PZh-j-36" value="+1 Taylor, She plans to go into a chocolate coma" style="rounded=1;whiteSpace=wrap;html=1;fillColor=#007FFF;" vertex="1" parent="WIyWlLk6GJQsqaUBKTNV-1">
          <mxGeometry x="650" y="580" width="120" height="60" as="geometry" />
        </mxCell>
      </root>
    </mxGraphModel>
  </diagram>
</mxfile>
